<?xml version="1.0" encoding="iso-8859-1"?>
<!-- Generator: Adobe Illustrator 19.0.0, SVG Export Plug-In . SVG Version: 6.00 Build 0)  -->
<svg version="1.1" id="Layer_1" xmlns="http://www.w3.org/2000/svg" xmlns:xlink="http://www.w3.org/1999/xlink" x="0px" y="0px"
	 viewBox="0 0 297.001 297.001" style="enable-background:new 0 0 297.001 297.001;" xml:space="preserve">
<g>
	<g>
		<g>
			<circle style="fill:#CB6F3D;" cx="148.501" cy="148.5" r="148.5"/>
		</g>
	</g>
	<path style="fill:#AD481C;" d="M222.001,111.419L97.413,254.698l42.019,42.019c3.001,0.181,6.023,0.284,9.069,0.284
		c70.314,0,129.209-48.871,144.584-114.498L222.001,111.419z"/>
	<g>
		<path style="fill:#79302A;" d="M108.545,259.104h79.913c8.196,0,15.109-6.103,16.125-14.235l16.321-130.571H76.098l16.321,130.571
			C93.436,253.002,100.349,259.104,108.545,259.104z"/>
	</g>
	<g>
		<path style="fill:#5E4534;" d="M148.501,136.899c-1.151,0-2.304-0.439-3.182-1.318L72.916,63.178
			c-1.758-1.757-1.758-4.606,0-6.363c1.756-1.758,4.607-1.758,6.363,0l72.403,72.403c1.758,1.757,1.758,4.606,0,6.363
			C150.805,136.46,149.652,136.899,148.501,136.899z"/>
	</g>
	<g>
		<path style="fill:#5E4534;" d="M166.605,136.9c-1.528,0-3.019-0.779-3.862-2.186l-54.303-90.503
			c-1.279-2.131-0.588-4.896,1.543-6.174c2.129-1.282,4.895-0.589,6.174,1.543l54.302,90.504c1.279,2.131,0.588,4.896-1.543,6.174
			C168.191,136.693,167.394,136.9,166.605,136.9z"/>
	</g>
	<g>
		<path style="fill:#662621;" d="M149.168,114.298v144.806h39.289c8.196,0,15.109-6.103,16.125-14.235l16.322-130.571
			C220.904,114.298,149.168,114.298,149.168,114.298z"/>
	</g>
	<g>
		<polygon style="fill:#FFFFFF;" points="93.376,166.544 203.626,166.544 222.001,111.419 75.001,111.419 		"/>
	</g>
	<g>
		<ellipse style="fill:#F4AF30;" cx="148.501" cy="204.802" rx="27.151" ry="18.101"/>
	</g>
	<g>
		<polygon style="fill:#E3E5E4;" points="222.001,111.419 149.168,111.419 149.168,166.544 203.626,166.544 		"/>
	</g>
	<g>
		<path style="fill:#EF9B06;" d="M175.652,204.802c0-9.848-11.798-17.853-26.484-18.09v36.179
			C163.854,222.655,175.652,214.65,175.652,204.802z"/>
	</g>
</g>
<g>
</g>
<g>
</g>
<g>
</g>
<g>
</g>
<g>
</g>
<g>
</g>
<g>
</g>
<g>
</g>
<g>
</g>
<g>
</g>
<g>
</g>
<g>
</g>
<g>
</g>
<g>
</g>
<g>
</g>
</svg>
